<?xml version="1.0" encoding="utf-8"?>
<!-- Generator: Adobe Illustrator 18.0.0, SVG Export Plug-In . SVG Version: 6.00 Build 0)  -->
<!DOCTYPE svg PUBLIC "-//W3C//DTD SVG 1.1//EN" "http://www.w3.org/Graphics/SVG/1.1/DTD/svg11.dtd">
<svg version="1.1" id="Layer_1" xmlns="http://www.w3.org/2000/svg" xmlns:xlink="http://www.w3.org/1999/xlink" x="0px" y="0px"
	 viewBox="0 0 252 84.6" enable-background="new 0 0 252 84.6" xml:space="preserve">
<ellipse fill="#4CDAC3" cx="127.3" cy="42.7" rx="41.3" ry="40.6"/>
<rect y="0.1" fill="#4CDAC3" width="252.2" height="84.6"/>
<g>
	<path fill="#6DE1CE" d="M128.1,1.9c-0.3,0.2-0.6,0.2-1,0C127.4,1.9,127.7,1.9,128.1,1.9z"/>
	<path fill="#6DE1CE" d="M85.2,41c0.2,0.3,0.2,0.6,0,1C85.2,41.6,85.2,41.3,85.2,41z"/>
	<path fill="#324A5E" d="M158.9,67.5c-2.6,3.5-5.7,6.4-9.3,8.8c-4.3,2.8-8.9,5-13.9,6c-2.7,0.6-5.3,0.9-8.1,0.9
		c-4.7,0.1-9.2-0.3-13.7-1.8c-2.4-0.8-4.7-1.8-7-2.9c-5.8-3.3-9.9-6.2-12.8-10.6c-0.1-0.1-0.2-0.3-0.3-0.4c1.3-4.2,2.7-8.3,4-12.5
		c0.1-0.3,0.3-0.4,0.5-0.6c5.6-2.7,11.3-5.4,16.9-8.1c0,0,0.1,0,0.1,0c0.4,0.3,0.2,0.7,0.2,1.1c-0.5,4.2,0.1,8.3,1.1,12.5
		c2.2-4,5.4-6.3,10-6.4c1.5-0.1,2.8,0.5,4,1.2c2.3,1.1,3.8,3,5.1,5.2c0.4-1.6,0.7-3.1,1-4.7c0.4-2.3,0.4-4.6,0.3-6.9
		c0-0.3-0.1-0.6-0.1-0.9c0-0.4-0.2-0.8,0.2-1.1c1.9,0.9,3.9,1.8,5.8,2.7c0.3,0.4,0,0.7-0.1,1c-0.5,1.2-0.8,2.5-0.8,3.8
		c0,4.2,3.3,7.9,7.5,8.6c2.2,0.3,4.1-0.1,6-1.1c0.3-0.2,0.6-0.5,1-0.2c0.4,0.6,0.5,1.3,0.7,1.9C158,64.6,158.4,66,158.9,67.5z"/>
	<path fill="#FECF5A" d="M117.6,42.6c-0.7-1.3-1.5-2.7-2.1-4.1c-0.1-0.1-0.2-0.1-0.3-0.3c-0.1-0.3-0.2-0.5-0.3-0.8
		c-1.2-3.8-0.5-7.5,0.9-11.1c0.4-1,0.9-1.9,1.4-2.9c0.5-0.8,0.8-1,1.8-0.8c1.7,0.4,3.4,0.7,5.2,0.7c2,0,3.9-0.3,5.7-1.1
		c1.9-0.9,3.9-0.6,5.7,0.4c1.3,0.7,1.8,2,2,3.4c0.1,0.7,0.1,1.4,0,2.1c-0.1,1.2,0.1,2.3,0.2,3.5c0.1,2.4,0.3,4.9-0.7,7.2
		c-0.2,0.4-0.4,0.8-0.6,1.2c-0.5,0.8-0.9,1.7-1.4,2.5c-0.2,0.9-0.7,1.6-1.3,2.2c-1.7,2-3.6,3.8-6.3,4.2c-2.1,0.3-4-0.2-5.7-1.3
		c-1.5-1-2.8-2.1-3.8-3.6C117.9,43.5,117.7,43,117.6,42.6z"/>
	<path fill="#324A5E" d="M136.6,39.9c0.2-1.1,0.6-2.3,0.8-3.4c0.4-2.1,0.2-4.2-0.1-6.3c-0.1-1.2,0-2.4-0.1-3.6
		c-0.2-3.2-1.9-4.3-4.8-4.5c-1-0.1-1.9,0.1-2.8,0.5c-1.8,0.9-3.9,1-5.9,1c-1.8-0.1-3.5-0.3-5.2-0.7c-0.4-0.1-0.6,0-0.8,0.3
		c-1.9,3.5-3.2,7.1-3.1,11.1c0,1.1,0.3,2.1,0.5,3.1c0.1,0.2,0,0.2-0.2,0.3c-0.2,0-0.3-0.1-0.4-0.2c-0.7-1.2-1.6-2.4-1.6-3.9
		c-0.7-2.2-1.3-4.3-1.5-6.6c-0.2-4.1,0.9-7.6,3.7-10.6c0.1-0.1,0.2-0.2,0.3-0.3c0,0,0-0.1,0.1-0.2c-0.8,0.1-1.7,0.3-2.6,0.5
		c1.2-1.9,2.7-3.3,4.6-4.2c2-0.9,4-0.9,6.1-0.4c-0.6-0.8-1.5-1.1-2.4-1.4c1-0.8,3.1-0.7,4.3,0.1c0.3,0.2,0.4,0.7,0.9,0.4
		c0.4-0.4,0.2-0.9-0.1-1.4c1,0,1.9,0.2,2.7,0.5c4.9,1.5,9,4.1,11.4,8.8c1.9,3.8,1.7,7.8,0.7,11.8c-0.3,1.2-0.8,2.4-1.2,3.6
		c-0.3,1.8-1,3.2-2.3,4.5C137.2,39,137,39.5,136.6,39.9z"/>
	<path fill="#FEFEFE" d="M156.8,61.2c-5.1,3.7-12.2,1.6-14.3-4.1c-0.9-2.4-0.8-4.9,0.3-7.2c0.1-0.3,0.2-0.5,0.4-0.8
		c1.3-1.9,3-3.4,5.3-4.1c6-1.8,12.2,2.7,12,9C160.4,57,159.1,59.4,156.8,61.2z"/>
	<path fill="#FEFEFE" d="M137.3,46.4c0.5,2.8,0.4,5.6,0,8.3c-0.3,2-0.6,4-1.2,6c-0.1,0.2,0,0.4-0.2,0.4c-1.7-4.1-4.8-6.5-9.2-7.3
		c-0.2-0.1-0.3-0.2-0.2-0.4c0.2-0.5,0.7-0.7,1.1-0.9c2-1.1,3.8-2.5,5.2-4.4c1.1-1.4,1.7-3,2-4.7c0.1-0.3,0-0.7,0.5-0.7
		C136.4,43.7,137,45,137.3,46.4z"/>
	<path fill="#FEFEFE" d="M126.6,53.6c0.1,0.1,0.1,0.1,0.1,0.2c-3.6,0.1-8.5,2.5-9.9,7.4c-0.5-1-0.6-1.9-0.8-2.9
		c-0.7-3.2-1.1-6.5-0.8-9.8c0.1-0.7,0.2-1.4,0.3-2.1c0.4-1.4,0.8-2.7,2.1-3.6c0.3,0.2,0.3,0.6,0.4,0.9c0.3,2.9,1.8,5,4,6.7
		c1.3,1,2.7,2,4.2,2.7C126.3,53.2,126.6,53.3,126.6,53.6z"/>
	<path fill="#E8BD5B" d="M126.6,53.6c-0.3,0.2-0.4,0-0.7-0.1c-2.1-1-4-2.3-5.6-3.9c-1.9-1.8-3-4.1-2.9-6.8c0-0.1,0-0.1,0.1-0.1
		c1.3,1.9,2.8,3.7,4.9,4.9c2.8,1.6,6,1.5,8.5-0.4c1.5-1.2,2.8-2.6,3.8-4.2c0.1-0.2,0.2-0.4,0.4-0.4c0.1,0.1,0.1,0.2,0.1,0.3
		c-0.2,1.3-0.5,2.6-1.1,3.8c-1,2.1-2.5,3.5-4.3,4.9C129,52.3,127.7,52.8,126.6,53.6z"/>
	<path fill="#FCCF5B" d="M113.1,33.6c0.6,1.4,1.2,2.8,2,4c0.2,0.1,0.2,0.4,0.4,0.4c0,0.1,0,0.3,0,0.4c-0.7,0.1-1.2-0.3-1.6-0.7
		C113,36.9,112.2,34.8,113.1,33.6z"/>
	<path fill="#FACE5C" d="M137.6,38.6c0.8-1.5,1.6-3,2.3-4.5C140.3,36.1,139.4,37.9,137.6,38.6z"/>
	<path fill="#58635D" d="M115.5,38.1c-0.3,0-0.4-0.2-0.4-0.4c0.1-0.1,0.1-0.1,0.2-0.2C115.4,37.6,115.4,37.9,115.5,38.1z"/>
	<path fill="#FE7058" d="M152.7,50.2c0.1,0.6-0.3,1.5,0.1,2c0.5,0.5,1.4,0.1,2.1,0.2c0.6,0,1.3,0,1.9,0.1c0.8,0.1,1.4,0.7,1.4,1.5
		c0,0.8-0.6,1.4-1.5,1.4c-1.1,0-2.3,0-3.4,0c-0.5,0-0.6,0.1-0.6,0.6c0,1.1,0,2.2,0,3.2c0,1-0.6,1.7-1.5,1.7c-0.9,0-1.5-0.7-1.5-1.7
		c0-1.1,0-2.1,0-3.2c0-0.4-0.1-0.6-0.6-0.6c-1.1,0-2.3,0-3.4,0c-1.3-0.1-2-1.1-1.5-2.1c0.3-0.6,0.8-0.9,1.5-0.9c1.1,0,2.2,0,3.3,0
		c0.6,0,0.8-0.1,0.8-0.7c-0.1-1,0-2.1,0-3.1c0-1,0.6-1.6,1.5-1.7c0.9,0,1.5,0.6,1.5,1.6C152.7,49,152.7,49.5,152.7,50.2z"/>
</g>
</svg>
