<?xml version="1.0" encoding="utf-8"?>
<!-- Generator: Adobe Illustrator 18.0.0, SVG Export Plug-In . SVG Version: 6.00 Build 0)  -->
<!DOCTYPE svg PUBLIC "-//W3C//DTD SVG 1.1//EN" "http://www.w3.org/Graphics/SVG/1.1/DTD/svg11.dtd">
<svg version="1.1" id="Layer_1" xmlns="http://www.w3.org/2000/svg" xmlns:xlink="http://www.w3.org/1999/xlink" x="0px" y="0px"
	 viewBox="0 89.6 612 612" enable-background="new 0 89.6 612 612" xml:space="preserve">
<ellipse fill="#4CDAC3" cx="307" cy="397.2" rx="304" ry="298.8"/>
<g>
	<path fill="#6DE1CE" d="M319.7,97.2c-2.3,1.8-4.7,1.5-7,0C315,97.2,317.3,97.2,319.7,97.2z"/>
	<path fill="#6DE1CE" d="M4.2,384.6c1.8,2.3,1.5,4.7,0,7C4.2,389.3,4.2,386.9,4.2,384.6z"/>
	<path fill="#324A5E" d="M546.5,579.8c-19.2,25.4-41.9,47.2-68.5,64.6c-31.5,20.6-65.2,36.5-102.3,44.4c-19.6,4.2-39.3,6.5-59.4,6.9
		c-34.3,0.6-67.9-2.4-100.6-13.1c-17.7-5.8-34.7-13.3-51.3-21.7c-42.9-24.3-72.9-45.8-94.1-77.8c-0.9-1.1-1.6-2.2-2.4-3.3
		c9.9-30.6,19.8-61.3,29.6-91.9c0.7-2.1,1.9-3.2,3.8-4.1c41.5-19.8,83.1-39.5,124.6-59.3c0.3-0.2,0.8-0.2,1.1-0.3
		c2.8,2.3,1.7,5.4,1.4,8.1c-3.5,31.1,1.1,61.4,8.3,92.1c16.4-29.1,39.5-46.6,73.5-46.9c11-0.7,20.4,4,29.8,8.7
		c16.7,8.4,28,22.3,37.8,38.5c3.2-11.6,5.2-23,7-34.4c2.6-16.9,3.2-33.9,2.4-51c-0.1-2.3-0.5-4.6-0.8-6.9c-0.3-2.7-1.5-5.8,1.3-8.1
		c14.3,6.7,28.6,13.4,42.8,20.1c2,2.8,0.3,5.2-0.7,7.7c-3.7,9.1-6.1,18.4-6,28.3c0.3,31.1,24.3,58.5,55.1,63.1
		c15.9,2.4,30.5-0.4,44.4-8.2c2.2-1.3,4.5-3.5,7.5-1.6c3.1,4.1,3.7,9.2,5.3,13.9C539.6,558.2,543,569,546.5,579.8z"/>
	<path fill="#FECF5A" d="M242.6,396.3c-5.3-9.9-11.1-19.6-15.2-30.2c-0.9-0.4-1.5-1.1-1.9-1.9c-1-2-1.8-4-2.3-6.1
		c-8.9-28.3-3.6-55.3,6.9-82c2.9-7.3,6.3-14.3,10-21.1c3.4-6.2,6.1-7.5,12.9-5.9c12.5,3,25.3,4.8,38.1,5.1
		c14.4,0.3,28.6-1.9,42.1-7.9c14.3-6.4,28.8-4.3,42.1,3c9.4,5.1,13.3,14.4,14.5,24.7c0.6,5,0.8,10,0.3,15.1
		c-0.8,8.6,1.1,17,1.6,25.6c1,17.9,2.2,35.8-4.9,52.9c-1.3,3.1-3,5.9-4.4,8.9c-3.4,6.2-6.7,12.4-10.1,18.6
		c-1.5,6.5-5.4,11.5-9.5,16.4c-12.5,14.7-26.3,27.6-46.4,30.9c-15.4,2.5-29.2-1.3-42-9.8c-10.9-7.3-20.6-15.8-28-26.8
		C244.5,402.9,243.1,399.8,242.6,396.3z"/>
	<path fill="#324A5E" d="M382.5,376.5c1.8-8.4,4.7-16.6,6.2-25.1c2.7-15.6,1.3-31-0.6-46.4c-1-8.8,0.2-17.5-0.4-26.2
		c-1.7-23.5-14.2-31.3-35.1-33c-7.2-0.6-14,0.8-20.8,4c-13.6,6.4-28.4,7.6-43.3,7c-13-0.5-25.9-2.2-38.5-5.5c-3-0.8-4.5-0.2-6,2.5
		c-14,25.5-23.5,52.3-22.5,82c0.3,7.8,2.2,15.3,3.8,22.9c0.5,1.2-0.1,1.7-1.2,2c-1.2,0-2.5-0.4-3-1.4c-4.9-9.1-12.1-17.4-11.5-28.8
		c-5.3-15.9-9.7-31.9-10.7-48.8c-1.8-29.9,6.6-56,27.5-77.8c0.7-0.7,1.4-1.4,2-2.1c0.2-0.3,0.2-0.7,0.5-1.5
		c-6.2,1.1-12.2,2.2-19.3,3.5c8.8-14.3,19.7-24.6,34.1-31.1c14.4-6.5,29.3-6.6,44.7-3.3c-4.6-5.7-11-8.1-17.5-10.6
		c7-6,22.5-5.3,31.6,0.7c1.9,1.3,3.3,5.5,6.3,2.9c3.3-2.9,1.2-6.4-1.1-10.1c7.2,0.1,13.7,1.5,20,3.4c36.2,10.9,66.2,30,83.6,64.9
		c14,28.2,12.8,57.5,4.8,87c-2.5,9-6,17.6-9,26.5c-2,12.9-7.7,23.9-17.2,32.9C387.1,369.9,385.7,373.9,382.5,376.5z"/>
	<path fill="#FEFEFE" d="M530.8,533.6c-37.2,27.2-89.6,11.5-105.2-30.5c-6.7-18-5.8-35.7,2.3-53c0.9-1.9,1.8-3.8,2.7-5.8
		c9.7-14.2,22.1-24.8,38.9-29.9c44.4-13.5,89.5,19.9,88.5,66.1C557.4,502.3,548,520.1,530.8,533.6z"/>
	<path fill="#FEFEFE" d="M387.7,424.2c4,20.4,2.9,40.9,0.3,61.4c-1.9,14.8-4.5,29.4-8.6,43.8c-0.4,1.3-0.3,2.8-1.8,3.3
		c-12.6-30.3-35.2-47.9-67.4-53.6c-1.2-0.5-1.9-1.3-1.7-2.7c1.4-3.6,4.8-4.9,7.8-6.6c14.9-8.3,28-18.7,38.5-32.3
		c7.9-10.3,12.6-22.1,15-34.9c0.4-2.1,0.2-4.9,3.4-5.1C381.2,404.7,385.3,414,387.7,424.2z"/>
	<path fill="#FEFEFE" d="M309.1,477.3c0.4,0.6,0.8,1.1,1.1,1.7c-26.7,0.9-62.4,18.6-73.2,54.3c-3.6-7-4.6-14.3-6-21.3
		c-4.8-23.8-8-47.8-6.1-72.2c0.4-5.2,1.4-10.3,2-15.5c2.7-10.3,6.2-20.1,15.2-26.8c2.1,1.8,2.3,4.5,2.6,6.8
		c2.2,21.1,13.3,36.7,29.5,49.5c9.8,7.7,19.9,14.8,31.2,20.2C307,474.6,308.7,475.4,309.1,477.3z"/>
	<path fill="#E8BD5B" d="M309.1,477.3c-1.9,1.2-3.3-0.2-4.8-0.9c-15.4-7.2-29.1-17-41.1-28.8c-13.8-13.5-22-30.2-21-50.3
		c0.1-0.4,0.2-0.7,0.4-1.1c9.7,14.2,20.8,26.9,35.9,35.8c20.5,12.1,43.8,11.3,62.7-3.1c11.2-8.5,20.3-19,28-30.7
		c0.8-1.3,1.2-2.9,3.1-3.2c0.7,0.6,1.1,1.4,0.9,2.4c-1.2,9.7-3.7,19-7.9,28c-7,15.1-18.7,26.1-31.5,36.3
		C326.2,467.8,317.3,471.9,309.1,477.3z"/>
	<path fill="#FCCF5B" d="M209.6,330.3c4.5,10,8.5,20.3,14.4,29.7c1.5,0.6,1.5,2.8,3.2,3.2c0.1,1,0.2,1.9,0.2,2.9
		c-5.2,1.1-8.5-2.3-11.9-5.3C208.6,354.8,203.2,339.3,209.6,330.3z"/>
	<path fill="#FACE5C" d="M389.8,366.9c5.7-11,11.5-21.9,17.2-32.9C409.8,348.8,403.1,361.7,389.8,366.9z"/>
	<path fill="#58635D" d="M227.2,363.2c-2.1,0-2.7-1.6-3.2-3.2c0.4-0.5,0.8-0.9,1.3-1.4C226.7,359.8,226.3,361.8,227.2,363.2z"/>
	<path fill="#FE7058" d="M500.8,452.4c0.4,4.3-2.2,11,0.9,14.4c3.4,3.7,10.3,0.9,15.6,1.3c4.6,0.3,9.4,0,14,0.4
		c6.1,0.6,10.3,5.4,10.1,10.8c-0.2,6-4.7,10.4-11,10.6c-8.4,0.2-16.7,0.2-25.1,0c-3.6-0.1-4.7,1-4.6,4.6c0.2,8,0.1,15.9,0.1,23.9
		c-0.1,7.4-4.6,12.3-11.1,12.3c-6.6,0-11-4.9-11.1-12.3c-0.1-7.8-0.2-15.6,0-23.3c0.1-3.3-1-4.4-4.3-4.4c-8.4,0.2-16.7,0.3-25.1,0
		c-9.6-0.4-14.8-7.8-11.4-15.7c2-4.7,5.9-6.6,10.7-6.7c8.2-0.1,16.3-0.3,24.5,0c4.2,0.1,5.9-0.9,5.7-5.5c-0.4-7.6-0.2-15.2-0.1-22.8
		c0.1-7.6,4.3-12.1,11.1-12.2c6.8,0,11.1,4.5,11.2,12.1C500.9,443.7,500.8,447.6,500.8,452.4z"/>
</g>
</svg>
