<?xml version="1.0" encoding="utf-8"?>
<!-- Generator: Adobe Illustrator 18.0.0, SVG Export Plug-In . SVG Version: 6.00 Build 0)  -->
<!DOCTYPE svg PUBLIC "-//W3C//DTD SVG 1.1//EN" "http://www.w3.org/Graphics/SVG/1.1/DTD/svg11.dtd">
<svg version="1.1" id="Layer_1" xmlns="http://www.w3.org/2000/svg" xmlns:xlink="http://www.w3.org/1999/xlink" x="0px" y="0px"
	 viewBox="0 0 350 350" enable-background="new 0 0 350 350" xml:space="preserve">
<rect x="29.7" y="239.9" fill="#F2CCCD" width="292.3" height="93"/>
<g>
	<path fill="#BE1E2D" d="M270.6,129.8c0-7.9-1-15.6-2.9-23l23.4-13.5l-25.6-44.4l-23.7,13.7c-10.8-10.3-24-18.1-38.8-22.3V12.7
		h-51.2v27.7c-14.7,4.2-27.9,11.9-38.6,22.2l-24-13.9L63.6,93l23.7,13.7c-1.9,7.4-2.9,15.2-2.9,23.2c0,7.5,0.9,14.8,2.6,21.8
		l-23.5,13.6l25.6,44.4l23.2-13.4c10.7,10.5,23.8,18.4,38.5,22.8v-43.1c-17.9-9.4-30.2-28.2-30.2-49.9c0-21.3,11.8-39.8,29.2-49.4
		v38.2l26.5,16.6l27.8-16.6V76.5c17.4,9.6,29.2,28.1,29.2,49.4c0,21.2-11.7,39.7-29,49.3v43.7c14.5-4.4,27.4-12.1,38-22.3l23,13.3
		l25.6-44.3l-23.1-13.3C269.7,145,270.6,137.5,270.6,129.8z"/>
	<g>
		<path fill="#41535B" d="M233.1,131.3c-1.8,18.9-12.9,35.1-28.7,43.9v43.7c14.5-4.4,27.4-12.1,38-22.3l23,13.3l25.6-44.3
			l-23.1-13.3c1.7-6.7,2.6-13.7,2.7-20.9H233.1z"/>
		<path fill="#41535B" d="M89.1,209.6l23.2-13.4c10.7,10.5,23.8,18.4,38.5,22.8v-43.1c-16.4-8.7-28-25.2-29.9-44.5H84.4
			c0.1,7,1,13.8,2.5,20.3l-23.5,13.6L89.1,209.6z"/>
	</g>
</g>
<g>
	<path fill="#41535B" d="M40.8,296.5c3.1,1.9,7.6,3.5,12.3,3.5c7,0,11.1-3.7,11.1-9.1c0-5-2.8-7.8-10-10.6c-8.7-3.1-14-7.6-14-15.1
		c0-8.3,6.9-14.4,17.2-14.4c5.4,0,9.4,1.3,11.7,2.6l-1.9,5.6c-1.7-0.9-5.3-2.5-10.1-2.5c-7.3,0-10,4.3-10,8c0,5,3.2,7.4,10.6,10.2
		c9,3.5,13.6,7.8,13.6,15.6c0,8.2-6.1,15.3-18.6,15.3c-5.1,0-10.7-1.5-13.6-3.4L40.8,296.5z"/>
	<path fill="#41535B" d="M90.7,257.5H74.5v-5.8h39.3v5.8H97.6v47.3h-6.9V257.5z"/>
	<path fill="#41535B" d="M122.4,288.1l-5.5,16.7h-7.1l18.1-53.1h8.3l18.1,53.1H147l-5.7-16.7H122.4z M139.9,282.8l-5.2-15.3
		c-1.2-3.5-2-6.6-2.8-9.7h-0.2c-0.8,3.2-1.7,6.4-2.7,9.6l-5.2,15.4H139.9z"/>
	<path fill="#41535B" d="M162.1,252.4c3.5-0.7,8.4-1.1,13.2-1.1c7.3,0,12.1,1.3,15.4,4.3c2.7,2.4,4.2,6,4.2,10.1
		c0,7-4.4,11.7-10,13.6v0.2c4.1,1.4,6.5,5.2,7.8,10.7c1.7,7.4,3,12.5,4.1,14.6h-7.1c-0.9-1.5-2-6.1-3.5-12.7
		c-1.6-7.3-4.4-10.1-10.6-10.3h-6.5v23h-6.9V252.4z M168.9,276.6h7c7.3,0,12-4,12-10.1c0-6.9-5-9.9-12.2-9.9c-3.3,0-5.7,0.3-6.8,0.6
		V276.6z"/>
	<path fill="#BE1E2D" d="M204.5,252.4c3.5-0.7,8.4-1.1,13.2-1.1c7.3,0,12.1,1.3,15.4,4.3c2.7,2.4,4.2,6,4.2,10.1
		c0,7-4.4,11.7-10,13.6v0.2c4.1,1.4,6.5,5.2,7.8,10.7c1.7,7.4,3,12.5,4.1,14.6H232c-0.9-1.5-2-6.1-3.5-12.7
		c-1.6-7.3-4.4-10.1-10.6-10.3h-6.5v23h-6.9V252.4z M211.4,276.6h7c7.3,0,12-4,12-10.1c0-6.9-5-9.9-12.2-9.9c-3.3,0-5.7,0.3-6.8,0.6
		V276.6z"/>
	<path fill="#BE1E2D" d="M274.4,279.9h-20.7v19.2h23v5.8h-29.9v-53.1h28.7v5.8h-21.8v16.8h20.7V279.9z"/>
	<path fill="#BE1E2D" d="M285.7,251.7h28.6v5.8h-21.8v17.7h20.1v5.7h-20.1v24h-6.9V251.7z"/>
</g>
<g>
	<g>
		<path fill="#41535B" d="M39.7,319l-1.1,3.4h-1.5l3.7-10.9h1.7l3.7,10.9h-1.5l-1.2-3.4H39.7z M43.3,317.9l-1.1-3.1
			c-0.2-0.7-0.4-1.4-0.6-2h0c-0.2,0.6-0.3,1.3-0.5,2l-1.1,3.2H43.3z"/>
		<path fill="#41535B" d="M47.8,322.4v-10.9h1.5l3.5,5.5c0.8,1.3,1.4,2.4,2,3.5l0,0c-0.1-1.5-0.2-2.8-0.2-4.5v-4.6H56v10.9h-1.4
			l-3.5-5.5c-0.8-1.2-1.5-2.5-2-3.6l0,0c0.1,1.4,0.1,2.7,0.1,4.5v4.7H47.8z"/>
		<path fill="#41535B" d="M63.6,319l-1.1,3.4h-1.5l3.7-10.9h1.7l3.7,10.9h-1.5l-1.2-3.4H63.6z M67.2,317.9l-1.1-3.1
			c-0.2-0.7-0.4-1.4-0.6-2h0c-0.2,0.6-0.3,1.3-0.5,2l-1.1,3.2H67.2z"/>
		<path fill="#41535B" d="M72.7,311.5v6.4c0,2.4,1.1,3.5,2.5,3.5c1.6,0,2.6-1.1,2.6-3.5v-6.4h1.4v6.4c0,3.3-1.8,4.7-4.1,4.7
			c-2.2,0-3.9-1.3-3.9-4.7v-6.4H72.7z"/>
		<path fill="#41535B" d="M83.8,312.7h-3.3v-1.2h8.1v1.2h-3.3v9.7h-1.4V312.7z"/>
		<path fill="#41535B" d="M91.2,311.5v4.6h5.3v-4.6h1.4v10.9h-1.4v-5.1h-5.3v5.1h-1.4v-10.9H91.2z"/>
		<path fill="#41535B" d="M109.6,316.9c0,3.7-2.3,5.7-5.1,5.7c-2.9,0-4.9-2.2-4.9-5.5c0-3.5,2.1-5.7,5.1-5.7
			C107.7,311.4,109.6,313.7,109.6,316.9z M101.2,317.1c0,2.3,1.3,4.4,3.5,4.4c2.2,0,3.5-2.1,3.5-4.5c0-2.2-1.1-4.4-3.5-4.4
			C102.4,312.5,101.2,314.7,101.2,317.1z"/>
		<path fill="#41535B" d="M111.5,311.7c0.7-0.1,1.7-0.2,2.7-0.2c1.5,0,2.5,0.3,3.2,0.9c0.5,0.5,0.9,1.2,0.9,2.1
			c0,1.4-0.9,2.4-2.1,2.8v0c0.8,0.3,1.3,1.1,1.6,2.2c0.4,1.5,0.6,2.6,0.8,3h-1.5c-0.2-0.3-0.4-1.2-0.7-2.6c-0.3-1.5-0.9-2.1-2.2-2.1
			h-1.3v4.7h-1.4V311.7z M112.9,316.7h1.4c1.5,0,2.5-0.8,2.5-2.1c0-1.4-1-2-2.5-2c-0.7,0-1.2,0.1-1.4,0.1V316.7z"/>
		<path fill="#41535B" d="M121.6,311.5v10.9h-1.4v-10.9H121.6z"/>
		<path fill="#41535B" d="M123.3,321.6l6-8.8v0h-5.5v-1.2h7.4v0.9l-6,8.8v0h6.1v1.2h-8V321.6z"/>
		<path fill="#41535B" d="M138.6,317.3h-4.2v3.9h4.7v1.2H133v-10.9h5.9v1.2h-4.5v3.4h4.2V317.3z"/>
		<path fill="#41535B" d="M140.9,311.7c0.9-0.1,1.9-0.2,3-0.2c2,0,3.5,0.5,4.4,1.4c1,0.9,1.5,2.1,1.5,3.9c0,1.8-0.5,3.2-1.6,4.2
			c-1,1-2.7,1.6-4.8,1.6c-1,0-1.8,0-2.6-0.1V311.7z M142.3,321.3c0.4,0.1,0.9,0.1,1.4,0.1c3,0,4.6-1.7,4.6-4.6
			c0-2.6-1.4-4.2-4.4-4.2c-0.7,0-1.3,0.1-1.6,0.1V321.3z"/>
		<path fill="#41535B" d="M154.9,320.7c0.6,0.4,1.6,0.7,2.5,0.7c1.4,0,2.3-0.8,2.3-1.9c0-1-0.6-1.6-2.1-2.2
			c-1.8-0.6-2.9-1.6-2.9-3.1c0-1.7,1.4-3,3.5-3c1.1,0,1.9,0.3,2.4,0.5l-0.4,1.1c-0.4-0.2-1.1-0.5-2.1-0.5c-1.5,0-2.1,0.9-2.1,1.6
			c0,1,0.7,1.5,2.2,2.1c1.8,0.7,2.8,1.6,2.8,3.2c0,1.7-1.2,3.1-3.8,3.1c-1.1,0-2.2-0.3-2.8-0.7L154.9,320.7z"/>
		<path fill="#41535B" d="M164.5,311.5v10.9h-1.4v-10.9H164.5z"/>
		<path fill="#41535B" d="M166.9,322.4v-10.9h1.5l3.5,5.5c0.8,1.3,1.4,2.4,2,3.5l0,0c-0.1-1.5-0.2-2.8-0.2-4.5v-4.6h1.3v10.9h-1.4
			l-3.5-5.5c-0.8-1.2-1.5-2.5-2-3.6l0,0c0.1,1.4,0.1,2.7,0.1,4.5v4.7H166.9z"/>
		<path fill="#41535B" d="M185.8,322c-0.6,0.2-1.9,0.6-3.3,0.6c-1.6,0-3-0.4-4.1-1.4c-0.9-0.9-1.5-2.4-1.5-4.1
			c0-3.2,2.2-5.6,5.9-5.6c1.3,0,2.2,0.3,2.7,0.5l-0.3,1.1c-0.6-0.3-1.3-0.5-2.4-0.5c-2.6,0-4.4,1.6-4.4,4.4c0,2.8,1.7,4.4,4.2,4.4
			c0.9,0,1.6-0.1,1.9-0.3v-3.2h-2.2v-1.1h3.6V322z"/>
		<path fill="#41535B" d="M193.6,317.3h-4.2v3.9h4.7v1.2H188v-10.9h5.9v1.2h-4.5v3.4h4.2V317.3z"/>
		<path fill="#41535B" d="M195.9,311.7c0.7-0.1,1.7-0.2,2.7-0.2c1.5,0,2.5,0.3,3.2,0.9c0.5,0.5,0.9,1.2,0.9,2.1
			c0,1.4-0.9,2.4-2.1,2.8v0c0.8,0.3,1.3,1.1,1.6,2.2c0.4,1.5,0.6,2.6,0.8,3h-1.5c-0.2-0.3-0.4-1.2-0.7-2.6c-0.3-1.5-0.9-2.1-2.2-2.1
			h-1.3v4.7h-1.4V311.7z M197.3,316.7h1.4c1.5,0,2.5-0.8,2.5-2.1c0-1.4-1-2-2.5-2c-0.7,0-1.2,0.1-1.4,0.1V316.7z"/>
		<path fill="#41535B" d="M207.9,320.7c0.6,0.4,1.6,0.7,2.5,0.7c1.4,0,2.3-0.8,2.3-1.9c0-1-0.6-1.6-2.1-2.2
			c-1.8-0.6-2.9-1.6-2.9-3.1c0-1.7,1.4-3,3.5-3c1.1,0,1.9,0.3,2.4,0.5l-0.4,1.1c-0.4-0.2-1.1-0.5-2.1-0.5c-1.5,0-2.1,0.9-2.1,1.6
			c0,1,0.7,1.5,2.2,2.1c1.8,0.7,2.8,1.6,2.8,3.2c0,1.7-1.2,3.1-3.8,3.1c-1.1,0-2.2-0.3-2.8-0.7L207.9,320.7z"/>
		<path fill="#41535B" d="M221.7,317.3h-4.2v3.9h4.7v1.2H216v-10.9h5.9v1.2h-4.5v3.4h4.2V317.3z"/>
		<path fill="#41535B" d="M224,311.7c0.7-0.1,1.7-0.2,2.7-0.2c1.5,0,2.5,0.3,3.2,0.9c0.5,0.5,0.9,1.2,0.9,2.1c0,1.4-0.9,2.4-2.1,2.8
			v0c0.8,0.3,1.3,1.1,1.6,2.2c0.4,1.5,0.6,2.6,0.8,3h-1.5c-0.2-0.3-0.4-1.2-0.7-2.6c-0.3-1.5-0.9-2.1-2.2-2.1h-1.3v4.7H224V311.7z
			 M225.4,316.7h1.4c1.5,0,2.5-0.8,2.5-2.1c0-1.4-1-2-2.5-2c-0.7,0-1.2,0.1-1.4,0.1V316.7z"/>
		<path fill="#41535B" d="M235.3,322.4l-3.6-10.9h1.5l1.7,5.4c0.5,1.5,0.9,2.8,1.2,4.1h0c0.3-1.3,0.8-2.6,1.2-4.1l1.8-5.4h1.5
			l-3.9,10.9H235.3z"/>
		<path fill="#41535B" d="M243.3,311.5v10.9h-1.4v-10.9H243.3z"/>
		<path fill="#41535B" d="M253.4,322.1c-0.5,0.3-1.6,0.5-2.9,0.5c-3.1,0-5.4-1.9-5.4-5.5c0-3.4,2.3-5.7,5.7-5.7
			c1.4,0,2.2,0.3,2.6,0.5l-0.3,1.1c-0.5-0.3-1.3-0.5-2.2-0.5c-2.6,0-4.3,1.6-4.3,4.5c0,2.7,1.5,4.4,4.2,4.4c0.9,0,1.7-0.2,2.3-0.5
			L253.4,322.1z"/>
		<path fill="#41535B" d="M260.8,317.3h-4.2v3.9h4.7v1.2h-6.1v-10.9h5.9v1.2h-4.5v3.4h4.2V317.3z"/>
		<path fill="#41535B" d="M274.2,322.1c-0.5,0.3-1.6,0.5-2.9,0.5c-3.1,0-5.4-1.9-5.4-5.5c0-3.4,2.3-5.7,5.7-5.7
			c1.4,0,2.2,0.3,2.6,0.5l-0.3,1.1c-0.5-0.3-1.3-0.5-2.2-0.5c-2.6,0-4.3,1.6-4.3,4.5c0,2.7,1.5,4.4,4.2,4.4c0.9,0,1.7-0.2,2.3-0.5
			L274.2,322.1z"/>
		<path fill="#41535B" d="M281.6,317.3h-4.2v3.9h4.7v1.2h-6.1v-10.9h5.9v1.2h-4.5v3.4h4.2V317.3z"/>
		<path fill="#41535B" d="M283.9,322.4v-10.9h1.5l3.5,5.5c0.8,1.3,1.4,2.4,2,3.5l0,0c-0.1-1.5-0.2-2.8-0.2-4.5v-4.6h1.3v10.9h-1.4
			l-3.5-5.5c-0.8-1.2-1.5-2.5-2-3.6l0,0c0.1,1.4,0.1,2.7,0.1,4.5v4.7H283.9z"/>
		<path fill="#41535B" d="M296.6,312.7h-3.3v-1.2h8.1v1.2H298v9.7h-1.4V312.7z"/>
		<path fill="#41535B" d="M308.2,317.3h-4.2v3.9h4.7v1.2h-6.1v-10.9h5.9v1.2h-4.5v3.4h4.2V317.3z"/>
		<path fill="#41535B" d="M310.5,311.7c0.7-0.1,1.7-0.2,2.7-0.2c1.5,0,2.5,0.3,3.2,0.9c0.5,0.5,0.9,1.2,0.9,2.1
			c0,1.4-0.9,2.4-2.1,2.8v0c0.8,0.3,1.3,1.1,1.6,2.2c0.4,1.5,0.6,2.6,0.8,3h-1.5c-0.2-0.3-0.4-1.2-0.7-2.6c-0.3-1.5-0.9-2.1-2.2-2.1
			h-1.3v4.7h-1.4V311.7z M311.9,316.7h1.4c1.5,0,2.5-0.8,2.5-2.1c0-1.4-1-2-2.5-2c-0.7,0-1.2,0.1-1.4,0.1V316.7z"/>
	</g>
</g>
</svg>
