<?xml version="1.0" encoding="utf-8"?>
<!-- Generator: Adobe Illustrator 18.0.0, SVG Export Plug-In . SVG Version: 6.00 Build 0)  -->
<!DOCTYPE svg PUBLIC "-//W3C//DTD SVG 1.1//EN" "http://www.w3.org/Graphics/SVG/1.1/DTD/svg11.dtd">
<svg version="1.1" id="Layer_1" xmlns="http://www.w3.org/2000/svg" xmlns:xlink="http://www.w3.org/1999/xlink" x="0px" y="0px"
	 viewBox="0 185 612 607" enable-background="new 0 185 612 607" xml:space="preserve">
<g>
	
		<circle fill="#377DFF" stroke="#377DFF" stroke-width="2" stroke-linecap="round" stroke-miterlimit="10" cx="306" cy="489.6" r="297.7"/>
	<path fill="#FFFFFF" d="M367.2,604.1c-2-20.1-1.2-34-1.2-52.1c9.1-4.7,25.3-35.1,28-60.4c7.1-0.4,18.2-7.5,21.7-34.7
		c1.6-14.6-5.1-22.9-9.5-25.7c11.5-34.7,35.5-142.5-44.6-153.6c-8.3-14.6-29.2-21.7-56.9-21.7c-109.8,2-123.2,82.9-99.1,175.7
		c-4.3,2.8-11.5,11.1-9.5,25.7c3.2,27.2,14.6,34.4,21.7,34.7c2.8,25.7,19.7,55.7,28.8,60.4c0,18.2,0.8,32.4-1.2,52.1
		c-15.8,41.9-95.9,45.4-142.1,85.7c48.6,49,126.7,83.7,209.7,83.7s180-65.5,196.2-83.3C463.1,649.5,383,646.3,367.2,604.1z"/>
</g>
<g>
	<path fill="#00C9A7" d="M612,596.6l-0.4-7.9l-7.9-0.8c-30-3.2-55.7-14.2-72.3-23.3c-17.8-9.9-28.8-19-28.8-19l-5.9-5.1l-5.9,5.1
		c0,0-11.1,9.1-28.8,19c-16.2,8.7-42.2,20.1-72.3,23.3l-7.9,0.8l-0.4,7.9c0,1.6-1.2,34.7,11.5,75.4c7.5,23.7,18.6,45.4,32.8,63.6
		c17.8,22.9,40.3,41.1,66.7,54.1l3.9,2l3.9-2c26.8-12.6,49.4-30.8,66.7-54.1c14.2-18.2,24.9-39.9,32.8-63.6
		C613.2,631.3,612,597.8,612,596.6z"/>
	<polygon fill="#FFFFFF" points="546.5,625 533.8,637.7 486.4,684.6 462.8,661 459.6,657.4 452.9,664.1 452.9,664.1 446.6,670.4 
		486.4,710.3 559.1,637.7 	"/>
</g>
</svg>
