<?xml version="1.0" encoding="utf-8"?>
<!-- Generator: Adobe Illustrator 18.0.0, SVG Export Plug-In . SVG Version: 6.00 Build 0)  -->
<!DOCTYPE svg PUBLIC "-//W3C//DTD SVG 1.1//EN" "http://www.w3.org/Graphics/SVG/1.1/DTD/svg11.dtd">
<svg version="1.1" id="Layer_1" xmlns="http://www.w3.org/2000/svg" xmlns:xlink="http://www.w3.org/1999/xlink" x="0px" y="0px"
	 viewBox="0 90 612 608.3" enable-background="new 0 90 612 608.3" xml:space="preserve">
<g>
	
		<circle fill="#377DFF" stroke="#377DFF" stroke-width="2" stroke-linecap="round" stroke-miterlimit="10" cx="306" cy="396.2" r="297.7"/>
	<path fill="#FFFFFF" d="M196.2,363.8"/>
	<path fill="#FFFFFF" d="M304.8,162.5"/>
</g>
<g>
	<path fill="#00C9A7" d="M612,503.2l-0.4-7.9l-7.9-0.8c-30-3.2-55.7-14.2-72.3-23.3c-17.8-9.9-28.8-19-28.8-19l-5.9-5.1l-5.9,5.1
		c0,0-11.1,9.1-28.8,19c-16.2,8.7-42.2,20.1-72.3,23.3l-7.9,0.8l-0.4,7.9c0,1.6-1.2,34.7,11.5,75.4c7.5,23.7,18.6,45.4,32.8,63.6
		c17.8,22.9,40.3,41.1,66.7,54.1l3.9,2l3.9-2c26.8-12.6,49.4-30.8,66.7-54.1c14.2-18.2,24.9-39.9,32.8-63.6
		C613.2,537.9,612,504.4,612,503.2z"/>
	<polygon fill="#FFFFFF" points="546.5,531.6 533.8,544.3 486.4,591.2 462.8,567.6 459.6,564 452.9,570.7 452.9,570.7 446.6,577 
		486.4,616.9 559.1,544.3 	"/>
</g>
<g>
	<path fill="#F8F8F8" d="M294.4,666.2c-6.8-0.9-13.6-1.9-20.4-2.7c-50.6-5.6-97.3-22.6-140-50.1c-2.2-1.4-4.1-5-4.2-7.6
		c-0.3-22.6-0.4-45.2-0.1-67.8c0.3-28.4,12.6-49.7,38.9-61.5c8.1-3.6,17.2-5.1,26.3-7.7c-0.2-1.8-0.2-3.7-0.5-5.5
		c-6.1-29.2-12.5-58.3-18.2-87.5c-4.4-22.2-6.7-44.7-3.3-67.3c2.3-15.4,5.6-30.6,8.6-45.9c0.4-2.1,1.7-3.9,2.3-6
		c1-3.2,2.5-6.4,2.5-9.7c0.2-21.1,0.3-42.2,0.1-63.3c-0.1-11.2,4.6-18.6,14.8-23.3c14-6.4,27.5-13.8,41.6-20.1
		c43.3-19.2,87.3-18.2,131.3-2.9c7.1,2.5,13.5,6.8,20.2,10.3c-0.3,0.6-0.5,1.1-0.8,1.7c-2-0.4-4.1-0.8-6.1-1.4
		c-21.5-5.7-43.3-8.6-65.5-9.4c-4-0.1-6.6,0.4-6.6,5.4c0.1,25,0.1,49.9,0,74.9c0,4,1.7,5.2,5.5,5.3c7.1,0.2,14.2,0.7,21.2,1.2
		c30.3,2.3,59.4,8.9,87.2,21.5c9.6,4.3,13.8,11.6,14.5,21.6c0.2,2.8,0.2,5.7,1.1,8.2c7.6,21.9,10.6,44.7,7.3,67.4
		c-4.9,33.6-11.8,66.8-17.9,100.2c-1.6,8.6-3.7,17-5.7,25.8c-4.8-0.9-8.6-2-12.4-2.2c-16.1-0.8-28.5-7.6-36.9-21.6
		c-2.9-4.8-6.9-8.1-13.6-5.5c0-14.5-0.1-28.2,0.1-42c0-2,1.8-4.2,3.3-5.8c5.7-6.2,12.2-11.7,17.2-18.3c8.6-11.4,16.4-23.5,24.9-35.8
		c5.9,1.7,11.9,0.3,17.3-4.1c12.3-9.9,19.2-32.6,14.8-47.5c-4.9-1.2-9.5-2.4-14.3-3.6c-2.2,8.3-4.5,16.5-6.9,25.6
		c-0.8-8.4-1.5-15.6-2-22.9c-0.4-6.8-4.3-9.8-10.5-11.8c-33.9-10.8-68.5-15.7-104.2-14.3c-30.3,1.2-59.8,5.1-88.6,14.6
		c-10.1,3.3-10.3,3.5-11.2,14.3c-0.6,7-1.3,14.1-2,21.1c-0.5,0-0.9,0-1.4,0.1c-2.2-8.6-4.3-17.3-6.4-25.7c-5.1,1.1-9.6,2.1-14.5,3.1
		c-2.3,13.8,0.3,27.2,8.4,39.3c5.3,7.8,11.8,13.5,22.4,12.4c1.7-0.2,4.4,2.1,5.4,3.9c10.1,18.7,22.8,35.4,38.5,49.7
		c1.3,1.2,3,3,3,4.6c0.2,14.1,0.1,28.2,0.1,42.3c-0.6-0.5-1.2-0.9-1.8-1.4c-3.3,2.1-7.1,3.6-9.8,6.3c-4.6,4.4-8.8,9.4-12.8,14.5
		c-1.1,1.3-1.8,4.1-1.1,5.4c13.3,24.3,26.7,48.6,40.4,72.8c3.6,6.4,11.3,6.7,16.4,1.4c1.6-1.7,3-3.6,4.6-5.4
		c6.2-7.3,12.3-14.6,18.5-21.9c1.7,3.4,2,6.3,2,9.2c0.1,4,0.8,7.9-5.3,9c-4,0.7-4.7,8.1-1,9.2c8.7,2.5,6.2,9,6.1,14.5
		c0,1.7-2.5,3.4-3.9,5.1c-1.5,1.9-4.1,3.7-4.1,5.6c0,1.8,2.4,4.9,4.1,5.3c5,0.9,4.4,4.4,3.9,7.3c-0.8,4,3.4,9.8-4.2,11.7
		c-1.7,0.4-3.7,3.6-3.9,5.6c-0.1,1.6,2.4,3.4,3.8,5.1c1.4,1.7,4.1,3.3,4.1,5c0.2,20.6,0,41.3-0.1,62
		C308.2,666.2,301.3,666.2,294.4,666.2z M265.5,552.2c-27.3,0-54.6,0.1-82-0.1c-5.1,0-6.8,1.5-6.6,6.6c0.3,9,0.3,18.1,0,27.1
		c-0.1,4.3,1.1,6.1,5.8,6.1c28.4-0.2,56.8,0,85.2-0.2c1.8,0,5.1-1.8,5.2-2.8c0.4-12,0.2-23.9,0.2-36.6
		C270.1,552.2,267.8,552.2,265.5,552.2z"/>
</g>
</svg>
