<?xml version="1.0" encoding="utf-8"?>
<!-- Generator: Adobe Illustrator 18.0.0, SVG Export Plug-In . SVG Version: 6.00 Build 0)  -->
<!DOCTYPE svg PUBLIC "-//W3C//DTD SVG 1.1//EN" "http://www.w3.org/Graphics/SVG/1.1/DTD/svg11.dtd">
<svg version="1.1" id="Layer_1" xmlns="http://www.w3.org/2000/svg" xmlns:xlink="http://www.w3.org/1999/xlink" x="0px" y="0px"
	 viewBox="0 92 612 606.3" enable-background="new 0 92 612 606.3" xml:space="preserve">
<g>
	
		<circle fill="#377DFF" stroke="#377DFF" stroke-width="2" stroke-linecap="round" stroke-miterlimit="10" cx="306" cy="396.2" r="297.7"/>
	<path fill="#FFFFFF" d="M246.8,459"/>
	<path fill="#FFFFFF" d="M196.2,363.8"/>
	<path fill="#FFFFFF" d="M304.8,162.5"/>
</g>
<path fill="#FFFFFF" d="M175.1,581.5c-13.9-6.7-15.4-20.8-10-30.3c21.5-38.2,75.5-42,102.2-7.2c1.7,2.2,3.4,3.3,6.4,3.3
	c24.2-0.1,48.5-0.1,72.7,0c3,0,4.7-1,6.4-3.3c22.6-29.7,67-32.2,92.9-5.2c3.4,3.6,6.4,7.8,9,12c6.8,11.2,3.2,22.5-9.6,30.7
	c2.1,1.5,4.4,2.8,6.2,4.6c1.8,1.8,3.3,2,5.6,0.8c6.9-3.8,14.2-7.1,20.9-11.3c9.5-5.9,18.1-13.1,24-22.8c1.8-3,3.5-7,3-10.1
	c-3.3-21.1-8.1-41.9-16.8-61.5c-6.3-14.1-14.8-26-28.9-33.6c-27.4-14.9-54.6-30.2-81.9-45.4c-3.8-2.1-7.2-1.6-10.6,1
	c-10.7,8.1-22.4,14-35.5,17.1c-4.1,1-6.4,3.6-7.8,7.5c-3.3,9.2-6.8,18.3-10.3,27.4c-0.7,1.9-1.6,3.7-2.8,6.5
	c-4.5-12-8.7-22.9-12.8-33.8c-1.4-3.9-3.7-6.6-7.8-7.6c-13.3-3.1-25.1-9.2-35.9-17.4c-3.4-2.6-6.8-2.7-10.6-0.6
	c-27.8,15.5-55.6,31.1-83.4,46.5c-10.9,6-18,15.1-23.5,26c-9.5,19.1-14.5,39.6-19.4,60.3c-2.5,10.4,0.6,17.7,7.1,24.8
	c11.4,12.6,25.8,20.8,41.1,27.5c0.9,0.4,2.6-0.1,3.5-0.7C170.5,585.2,172.6,583.4,175.1,581.5z"/>
<path fill="#F8F8F8" d="M321.9,156.3c8.9,1.4,17.8,2.3,26.6,4.2c35.1,7.9,55.4,30.3,62.1,65.1c4.7,24.5,6.3,49.5,3.5,74.2
	c-5.8,51.6-32.7,88.1-81.3,107.9c-18.7,7.6-36.8,4.9-54.3-3.7c-41.1-20.2-65.5-53.1-71.5-98.3c-4.2-31.5-3.1-63.2,6.3-93.7
	c8.6-27.8,28.5-44.4,56.6-51.1c9.3-2.2,18.9-3.1,28.3-4.7C306.1,156.3,314,156.3,321.9,156.3z M399.4,266.4
	c-2.9,3.4-5.3,6.5-8.1,9.2c-4,3.7-7.6,3.7-11.8,0.4c-4.6-3.5-8.9-7.4-13.4-11c-28.5-22.9-73.1-25.5-103.7-5.6
	c-7.5,4.9-14.2,10.9-21.4,16.4c-4.7,3.6-8.2,3.5-12.5-0.7c-2.7-2.6-4.9-5.6-7.4-8.4c-0.4,0-0.8,0-1.3,0.1
	c0.8,13.1,0.5,26.4,2.7,39.3c6.9,41.8,30.2,71,69.5,87c7.6,3.1,15.7,5.3,24.1,3.3c34.1-8,57.7-28.9,72.7-60
	C399.4,314.4,400.5,290.8,399.4,266.4z M344.2,203.4c-23-7.5-45.5-7.6-68.3,0.1c2.1,5.4,4.2,10.3,5.9,15.3c1.1,3.1,2.5,3.8,5.7,2.9
	c11.5-3.3,23.3-4.3,35.2-2.2c4.6,0.8,9.1,1.9,13.9,3C339.2,216,341.7,209.8,344.2,203.4z"/>
<path fill="#F8F8F8" d="M212.1,625c-8.3-2.6-16.6-5.2-22.8-11.6c-2.5-2.6-4.9-5.4-7-8.4c-0.9-1.3-1.9-3.7-1.3-4.8
	c0.6-1.1,3-1.6,4.7-1.6c10.5-0.1,21-0.2,31.6,0c3.2,0.1,5.4-0.6,5.4-4.2c0-8.6,0-17.3-0.1-25.9c0-3-1.7-4-4.7-3.9
	c-10.7,0.2-21.3,0.1-32,0c-1.7,0-3.3-0.8-5-1.3c0.5-1.6,0.5-3.5,1.4-4.9c8.9-13.6,21.6-20.6,37.7-20.1c16.7,0.5,29.3,8.6,37.1,23.4
	c1.5,2.8,3,3.9,6.2,3.9c31.1-0.1,62.2-0.1,93.3,0c3.6,0,5.2-1.2,6.9-4.3c7.9-14.8,20.7-22.6,37.3-23c15.9-0.4,28.5,6.6,37.3,20
	c0.8,1.3,1.8,3.7,1.3,4.4c-0.9,1.1-3,1.8-4.7,1.8c-10.8,0.2-21.6,0.2-32.5,0c-2.8,0-4.5,0.6-4.5,3.6c0,8.9,0,17.9,0,26.8
	c0,2.9,1.7,3.7,4.5,3.6c10.8-0.2,21.6-0.1,32.5,0c1.6,0,3.7,0.6,4.7,1.7c0.5,0.6-0.5,3.1-1.3,4.4c-6.3,10.1-15.4,16.2-26.8,19.2
	c-1.1,0.3-2.2,0.8-3.3,1.2c-4.3,0-8.5,0-12.8,0c-0.5-0.3-1-0.7-1.6-0.8c-14.3-3-24.7-11.1-31.4-24.1c-0.7-1.3-3-2.4-4.6-2.4
	c-31.7-0.1-63.3-0.1-95-0.2c-2.6,0-3.8,1-5.3,3.1c-3.5,5-7.2,10.1-11.6,14.4c-6.1,6.1-14.4,8.1-22.6,9.9
	C219.4,625,215.8,625,212.1,625z"/>
<path fill="#F8F8F8" d="M175.1,581.5c-2.5,1.9-4.6,3.7-6.9,5.2c-1,0.6-2.6,1.1-3.5,0.7c-15.3-6.7-29.7-14.9-41.1-27.5
	c-6.5-7.2-9.6-14.4-7.1-24.8c4.9-20.6,9.9-41.1,19.4-60.3c5.4-10.9,12.6-20,23.5-26c27.9-15.4,55.7-30.9,83.4-46.5
	c3.8-2.1,7.2-2,10.6,0.6c10.8,8.2,22.7,14.3,35.9,17.4c4.1,1,6.4,3.7,7.8,7.6c4,11,8.2,21.9,12.8,33.8c1.2-2.8,2-4.7,2.8-6.5
	c3.5-9.1,7-18.2,10.3-27.4c1.4-3.9,3.8-6.6,7.8-7.5c13.1-3.1,24.8-9.1,35.5-17.1c3.4-2.6,6.8-3.1,10.6-1
	c27.3,15.2,54.5,30.5,81.9,45.4c14.1,7.6,22.6,19.6,28.9,33.6c8.8,19.6,13.5,40.4,16.8,61.5c0.5,3.2-1.2,7.2-3,10.1
	c-5.9,9.7-14.4,16.9-24,22.8c-6.7,4.1-14,7.4-20.9,11.3c-2.2,1.2-3.7,1-5.6-0.8c-1.8-1.8-4.1-3.1-6.2-4.6
	c12.8-8.2,16.5-19.5,9.6-30.7c-2.6-4.3-5.6-8.4-9-12c-25.8-27-70.3-24.5-92.9,5.2c-1.7,2.3-3.4,3.3-6.4,3.3
	c-24.2-0.1-48.5-0.1-72.7,0c-3,0-4.7-1.1-6.4-3.3c-26.6-34.8-80.6-31-102.2,7.2C159.7,560.7,161.2,574.8,175.1,581.5z"/>
<g>
	<path fill="#00C9A7" d="M612,503.2l-0.4-7.9l-7.9-0.8c-30-3.2-55.7-14.2-72.3-23.3c-17.8-9.9-28.8-19-28.8-19l-5.9-5.1l-5.9,5.1
		c0,0-11.1,9.1-28.8,19c-16.2,8.7-42.2,20.1-72.3,23.3l-7.9,0.8l-0.4,7.9c0,1.6-1.2,34.7,11.5,75.4c7.5,23.7,18.6,45.4,32.8,63.6
		c17.8,22.9,40.3,41.1,66.7,54.1l3.9,2l3.9-2c26.8-12.6,49.4-30.8,66.7-54.1c14.2-18.2,24.9-39.9,32.8-63.6
		C613.2,537.9,612,504.4,612,503.2z"/>
	<polygon fill="#FFFFFF" points="546.5,531.6 533.8,544.3 486.4,591.2 462.8,567.6 459.6,564 452.9,570.7 452.9,570.7 446.6,577 
		486.4,616.9 559.1,544.3 	"/>
</g>
</svg>
